<?xml version="1.0" standalone="yes"?>
<svg xmlns="http://www.w3.org/2000/svg" width="1280" height="1280">
<path style="fill:#010101; stroke:none;" d="M0 0L0 1280L1280 1280L1280 0L0 0z"/>
<path style="fill:#ffffff; stroke:none;" d="M441 398L462.702 444L520.742 563L663.784 857L722 976L772 952.167L790 942L810 934L758.258 828L659.258 625L578.778 460L528 356L441 398z"/>
<path style="fill:#ececec; stroke:none;" d="M498 370L499 371L498 370z"/>
<path style="fill:#c8c8c8; stroke:none;" d="M444 406L445 407L444 406z"/>
<path style="fill:#ececec; stroke:none;" d="M554 410L555 411L554 410M465 449L466 450L465 449M575 453L576 454L575 453z"/>
<path style="fill:#c8c8c8; stroke:none;" d="M484 488L485 489L484 488M596 496L597 497L596 496z"/>
<path style="fill:#d8d8d8; stroke:none;" d="M524 570L525 571L524 570z"/>
<path style="fill:#ececec; stroke:none;" d="M632 570L633 571L632 570M526 574L527 575L526 574M634 574L635 575L634 574M545 613L546 614L545 613z"/>
<path style="fill:#d8d8d8; stroke:none;" d="M564 652L565 653L564 652z"/>
<path style="fill:#ececec; stroke:none;" d="M566 656L567 657L566 656M674 656L675 657L674 656M606 738L607 739L606 738M627 781L628 782L627 781M752 816L753 817L752 816M646 820L647 821L646 820M771 855L772 856L771 855M667 863L668 864L667 863M686 902L687 903L686 902M794 902L795 903L794 902M790 942L791 943L790 942M774 950L775 951L774 950z"/>
</svg>
