<?xml version="1.0" standalone="yes"?>
<svg xmlns="http://www.w3.org/2000/svg" width="1280" height="1280">
<path style="fill:#010101; stroke:none;" d="M0 0L0 1280L1280 1280L1280 0L0 0z"/>
<path style="fill:#ffffff; stroke:none;" d="M431 237L425 241C412.101 243.547 413 270.313 413 280L413 405L413 845L413 948C413 962.197 415.388 980.331 430 987.084C440.241 991.817 455.915 989 467 989L551 989L846 989L935 989C947.987 989 962.719 991.749 972.805 981.737C984.89 969.74 982 949.374 982 934L982 816L982 396L982 290C982 274.781 984.725 255.818 974.468 243.04C966.354 232.933 954.513 234.333 943 234.333L867 234.333L549.667 234.333L461.667 234.333C454.405 234.333 435.879 231.198 431 237z"/>
<path style="fill:#bfbfbf; stroke:none;" d="M438 234L439 235L438 234M440 234L441 235L440 234M442 234L443 235L442 234M444 234L445 235L444 234M446 234L447 235L446 234M448 234L449 235L448 234M450 234L451 235L450 234M452 234L453 235L452 234M454 234L455 235L454 234M456 234L457 235L456 234M458 234L459 235L458 234M460 234L461 235L460 234M462 234L463 235L462 234M464 234L465 235L464 234M466 234L467 235L466 234M468 234L469 235L468 234M470 234L471 235L470 234M472 234L473 235L472 234M474 234L475 235L474 234M476 234L477 235L476 234M478 234L479 235L478 234M480 234L481 235L480 234M482 234L483 235L482 234M484 234L485 235L484 234M486 234L487 235L486 234M488 234L489 235L488 234M490 234L491 235L490 234M492 234L493 235L492 234M494 234L495 235L494 234M496 234L497 235L496 234M498 234L499 235L498 234M500 234L501 235L500 234M502 234L503 235L502 234M504 234L505 235L504 234M506 234L507 235L506 234M508 234L509 235L508 234M510 234L511 235L510 234M512 234L513 235L512 234M514 234L515 235L514 234M516 234L517 235L516 234M518 234L519 235L518 234M520 234L521 235L520 234M522 234L523 235L522 234M524 234L525 235L524 234M526 234L527 235L526 234M528 234L529 235L528 234M530 234L531 235L530 234M532 234L533 235L532 234M534 234L535 235L534 234M536 234L537 235L536 234M538 234L539 235L538 234M540 234L541 235L540 234M542 234L543 235L542 234M544 234L545 235L544 234M546 234L547 235L546 234M548 234L549 235L548 234M550 234L551 235L550 234M552 234L553 235L552 234M554 234L555 235L554 234M556 234L557 235L556 234M558 234L559 235L558 234M560 234L561 235L560 234M562 234L563 235L562 234M564 234L565 235L564 234M566 234L567 235L566 234M568 234L569 235L568 234M570 234L571 235L570 234M572 234L573 235L572 234M574 234L575 235L574 234M576 234L577 235L576 234M578 234L579 235L578 234M580 234L581 235L580 234M582 234L583 235L582 234M584 234L585 235L584 234M586 234L587 235L586 234M588 234L589 235L588 234M590 234L591 235L590 234M592 234L593 235L592 234M594 234L595 235L594 234M596 234L597 235L596 234M598 234L599 235L598 234M600 234L601 235L600 234M602 234L603 235L602 234M604 234L605 235L604 234M606 234L607 235L606 234M608 234L609 235L608 234M610 234L611 235L610 234M612 234L613 235L612 234M614 234L615 235L614 234M616 234L617 235L616 234M618 234L619 235L618 234M620 234L621 235L620 234M622 234L623 235L622 234M624 234L625 235L624 234M626 234L627 235L626 234M628 234L629 235L628 234M630 234L631 235L630 234M632 234L633 235L632 234M634 234L635 235L634 234M636 234L637 235L636 234M638 234L639 235L638 234M640 234L641 235L640 234M642 234L643 235L642 234M644 234L645 235L644 234M646 234L647 235L646 234M648 234L649 235L648 234M650 234L651 235L650 234M652 234L653 235L652 234M654 234L655 235L654 234M656 234L657 235L656 234M658 234L659 235L658 234M660 234L661 235L660 234M662 234L663 235L662 234M664 234L665 235L664 234M666 234L667 235L666 234M668 234L669 235L668 234M670 234L671 235L670 234M672 234L673 235L672 234M674 234L675 235L674 234M676 234L677 235L676 234M678 234L679 235L678 234M680 234L681 235L680 234M682 234L683 235L682 234M684 234L685 235L684 234M686 234L687 235L686 234M688 234L689 235L688 234M690 234L691 235L690 234M692 234L693 235L692 234M694 234L695 235L694 234M696 234L697 235L696 234M698 234L699 235L698 234M700 234L701 235L700 234M702 234L703 235L702 234M704 234L705 235L704 234M706 234L707 235L706 234M708 234L709 235L708 234M710 234L711 235L710 234M712 234L713 235L712 234M714 234L715 235L714 234M716 234L717 235L716 234M718 234L719 235L718 234M720 234L721 235L720 234M722 234L723 235L722 234M724 234L725 235L724 234M726 234L727 235L726 234M728 234L729 235L728 234M730 234L731 235L730 234M732 234L733 235L732 234M734 234L735 235L734 234M736 234L737 235L736 234M738 234L739 235L738 234M740 234L741 235L740 234M742 234L743 235L742 234M744 234L745 235L744 234M746 234L747 235L746 234M748 234L749 235L748 234M750 234L751 235L750 234M752 234L753 235L752 234M754 234L755 235L754 234M756 234L757 235L756 234M758 234L759 235L758 234M760 234L761 235L760 234M762 234L763 235L762 234M764 234L765 235L764 234M766 234L767 235L766 234M768 234L769 235L768 234M770 234L771 235L770 234M772 234L773 235L772 234M774 234L775 235L774 234M776 234L777 235L776 234M778 234L779 235L778 234M780 234L781 235L780 234M782 234L783 235L782 234M784 234L785 235L784 234M786 234L787 235L786 234M788 234L789 235L788 234M790 234L791 235L790 234M792 234L793 235L792 234M794 234L795 235L794 234M796 234L797 235L796 234M798 234L799 235L798 234M800 234L801 235L800 234M802 234L803 235L802 234M804 234L805 235L804 234M806 234L807 235L806 234M808 234L809 235L808 234M810 234L811 235L810 234M812 234L813 235L812 234M814 234L815 235L814 234M816 234L817 235L816 234M818 234L819 235L818 234M820 234L821 235L820 234M822 234L823 235L822 234M824 234L825 235L824 234M826 234L827 235L826 234M828 234L829 235L828 234M830 234L831 235L830 234M832 234L833 235L832 234M834 234L835 235L834 234M836 234L837 235L836 234M838 234L839 235L838 234M840 234L841 235L840 234M842 234L843 235L842 234M844 234L845 235L844 234M846 234L847 235L846 234M848 234L849 235L848 234M850 234L851 235L850 234M852 234L853 235L852 234M854 234L855 235L854 234M856 234L857 235L856 234M858 234L859 235L858 234M860 234L861 235L860 234M862 234L863 235L862 234M864 234L865 235L864 234M866 234L867 235L866 234M868 234L869 235L868 234M870 234L871 235L870 234M872 234L873 235L872 234M874 234L875 235L874 234M876 234L877 235L876 234M878 234L879 235L878 234M880 234L881 235L880 234M882 234L883 235L882 234M884 234L885 235L884 234M886 234L887 235L886 234M888 234L889 235L888 234M890 234L891 235L890 234M892 234L893 235L892 234M894 234L895 235L894 234M896 234L897 235L896 234M898 234L899 235L898 234M900 234L901 235L900 234M902 234L903 235L902 234M904 234L905 235L904 234M906 234L907 235L906 234M908 234L909 235L908 234M910 234L911 235L910 234M912 234L913 235L912 234M914 234L915 235L914 234M916 234L917 235L916 234M918 234L919 235L918 234M920 234L921 235L920 234M922 234L923 235L922 234M924 234L925 235L924 234M926 234L927 235L926 234M928 234L929 235L928 234M930 234L931 235L930 234M932 234L933 235L932 234M934 234L935 235L934 234M936 234L937 235L936 234M938 234L939 235L938 234M940 234L941 235L940 234M942 234L943 235L942 234M944 234L945 235L944 234M946 234L947 235L946 234M948 234L949 235L948 234M950 234L951 235L950 234M952 234L953 235L952 234M954 234L955 235L954 234M956 234L957 235L956 234z"/>
<path style="fill:#e1e1e1; stroke:none;" d="M430 236L431 237L430 236M424 240L425 241L424 240M416 252L417 253L416 252z"/>
<path style="fill:#bfbfbf; stroke:none;" d="M980 256L981 257L980 256z"/>
<path style="fill:#818181; stroke:none;" d="M413 263L414 264L413 263z"/>
<path style="fill:#010101; stroke:none;" d="M463 303L463 920L933 920L933 303L463 303z"/>
<path style="fill:#e1e1e1; stroke:none;" d="M980 966L981 967L980 966M416 970L417 971L416 970z"/>
<path style="fill:#818181; stroke:none;" d="M976 976L977 977L976 976z"/>
<path style="fill:#bfbfbf; stroke:none;" d="M420 978L421 979L420 978z"/>
<path style="fill:#e1e1e1; stroke:none;" d="M968 984L969 985L968 984z"/>
<path style="fill:#818181; stroke:none;" d="M966 986L967 987L966 986z"/>
<path style="fill:#bfbfbf; stroke:none;" d="M960 988L961 989L960 988z"/>
</svg>
