<?xml version="1.0" standalone="yes"?>
<svg xmlns="http://www.w3.org/2000/svg" width="1280" height="1280">
<path style="fill:#ffffff; stroke:none;" d="M680 980C696.045 977.72 708.502 954.72 712.914 941C717.846 925.66 716 907.879 716 892L716 807L716 362C716 309.708 730.632 233.565 668 211.38C628.645 197.439 578.578 215.634 566.431 258C558.866 284.388 564 317.701 564 345L564 735L564 864C564 885.354 562.047 907.758 564.171 929C568.081 968.104 605.136 992.057 642 992C652.489 991.984 673.786 989.486 680 980z"/>
</svg>
