<?xml version="1.0" standalone="yes"?>
<svg xmlns="http://www.w3.org/2000/svg" width="1280" height="1280">
<path style="fill:#010101; stroke:none;" d="M0 0L0 1280L1280 1280L1280 0L0 0z"/>
<path style="fill:#ffffff; stroke:none;" d="M425 960C427.854 965.853 435.304 971.252 442 971C448.553 980.509 470.941 980.127 481.285 979.844C485.413 979.731 491.412 979.43 494 976C501.071 977.723 514.196 972.118 518 966C526.457 965.268 538.937 952.297 540 944L545 935C553.329 929.338 551.796 908.299 551.796 899.398L551.796 799.398L551.796 387.398L551.796 275.398C551.796 265.833 553.558 242.484 544 237C544.023 219.743 517.041 204.14 503 199.181C464.088 185.437 415.342 203.631 402.735 244.83C397.007 263.551 400 285.641 400 305L400 419L400 795L400 876C400 891.055 398.357 907.184 401.197 922C403.406 933.525 411.653 957.719 425 960z"/>
<path style="fill:#b4b4b4; stroke:none;" d="M520 208L521 209L520 208z"/>
<path style="fill:#818181; stroke:none;" d="M420 216L421 217L420 216z"/>
<path style="fill:#b4b4b4; stroke:none;" d="M530 216L531 217L530 216z"/>
<path style="fill:#818181; stroke:none;" d="M534 220L535 221L534 220z"/>
<path style="fill:#dfdfdf; stroke:none;" d="M544 236L545 237L544 236z"/>
<path style="fill:#b4b4b4; stroke:none;" d="M546 240L547 241L546 240z"/>
<path style="fill:#dfdfdf; stroke:none;" d="M402 246L403 247L402 246M400 256L401 257L400 256M551 267L552 268L551 267M551 271L552 272L551 271M551 275L552 276L551 275M551 279L552 280L551 279M551 283L552 284L551 283M551 287L552 288L551 287M551 291L552 292L551 291M551 295L552 296L551 295M551 299L552 300L551 299M551 303L552 304L551 303M551 307L552 308L551 307M551 311L552 312L551 311M551 315L552 316L551 315M551 319L552 320L551 319M551 323L552 324L551 323M551 327L552 328L551 327M551 331L552 332L551 331M551 335L552 336L551 335M551 339L552 340L551 339M551 343L552 344L551 343M551 347L552 348L551 347M551 351L552 352L551 351M551 355L552 356L551 355M551 359L552 360L551 359M551 363L552 364L551 363M551 367L552 368L551 367M551 371L552 372L551 371M551 375L552 376L551 375M551 379L552 380L551 379M551 383L552 384L551 383M551 387L552 388L551 387M551 391L552 392L551 391M551 395L552 396L551 395M551 399L552 400L551 399M551 403L552 404L551 403M551 407L552 408L551 407M551 411L552 412L551 411M551 415L552 416L551 415M551 419L552 420L551 419M551 423L552 424L551 423M551 427L552 428L551 427M551 431L552 432L551 431M551 435L552 436L551 435M551 439L552 440L551 439M551 443L552 444L551 443M551 447L552 448L551 447M551 451L552 452L551 451M551 455L552 456L551 455M551 459L552 460L551 459M551 463L552 464L551 463M551 467L552 468L551 467M551 471L552 472L551 471M551 475L552 476L551 475M551 479L552 480L551 479M551 483L552 484L551 483M551 487L552 488L551 487M551 491L552 492L551 491M551 495L552 496L551 495M551 499L552 500L551 499M551 503L552 504L551 503M551 507L552 508L551 507M551 511L552 512L551 511M551 515L552 516L551 515M551 519L552 520L551 519M551 523L552 524L551 523M551 527L552 528L551 527M551 531L552 532L551 531M551 535L552 536L551 535M551 539L552 540L551 539M551 543L552 544L551 543M551 547L552 548L551 547M551 551L552 552L551 551M551 555L552 556L551 555M551 559L552 560L551 559M551 563L552 564L551 563M551 567L552 568L551 567M551 571L552 572L551 571M551 575L552 576L551 575M551 579L552 580L551 579M551 583L552 584L551 583M551 587L552 588L551 587M551 591L552 592L551 591M551 595L552 596L551 595M551 599L552 600L551 599M551 603L552 604L551 603M551 607L552 608L551 607M551 611L552 612L551 611M551 615L552 616L551 615M551 619L552 620L551 619M551 623L552 624L551 623M551 627L552 628L551 627M551 631L552 632L551 631M551 635L552 636L551 635M551 639L552 640L551 639M551 643L552 644L551 643M551 647L552 648L551 647M551 651L552 652L551 651M551 655L552 656L551 655M551 659L552 660L551 659M551 663L552 664L551 663M551 667L552 668L551 667M551 671L552 672L551 671M551 675L552 676L551 675M551 679L552 680L551 679M551 683L552 684L551 683M551 687L552 688L551 687M551 691L552 692L551 691M551 695L552 696L551 695M551 699L552 700L551 699M551 703L552 704L551 703M551 707L552 708L551 707M551 711L552 712L551 711M551 715L552 716L551 715M551 719L552 720L551 719M551 723L552 724L551 723M551 727L552 728L551 727M551 731L552 732L551 731M551 735L552 736L551 735M551 739L552 740L551 739M551 743L552 744L551 743M551 747L552 748L551 747M551 751L552 752L551 751M551 755L552 756L551 755M551 759L552 760L551 759M551 763L552 764L551 763M551 767L552 768L551 767M551 771L552 772L551 771M551 775L552 776L551 775M551 779L552 780L551 779M551 783L552 784L551 783M551 787L552 788L551 787M551 791L552 792L551 791M551 795L552 796L551 795M551 799L552 800L551 799M551 803L552 804L551 803M551 807L552 808L551 807M551 811L552 812L551 811M551 815L552 816L551 815M551 819L552 820L551 819M551 823L552 824L551 823M551 827L552 828L551 827M551 831L552 832L551 831M551 835L552 836L551 835M551 839L552 840L551 839M551 843L552 844L551 843M551 847L552 848L551 847M551 851L552 852L551 851M551 855L552 856L551 855M551 859L552 860L551 859M551 863L552 864L551 863M551 867L552 868L551 867M551 871L552 872L551 871M551 875L552 876L551 875M551 879L552 880L551 879M551 883L552 884L551 883M551 887L552 888L551 887M551 891L552 892L551 891M551 895L552 896L551 895M551 899L552 900L551 899M551 903L552 904L551 903M551 907L552 908L551 907z"/>
<path style="fill:#818181; stroke:none;" d="M400 918L401 919L400 918z"/>
<path style="fill:#dfdfdf; stroke:none;" d="M550 918L551 919L550 918M549 923L550 924L549 923M548 928L549 929L548 928M545 935L546 936L545 935z"/>
<path style="fill:#818181; stroke:none;" d="M544 938L545 939L544 938z"/>
<path style="fill:#dfdfdf; stroke:none;" d="M540 944L541 945L540 944z"/>
<path style="fill:#818181; stroke:none;" d="M538 948L539 949L538 948z"/>
<path style="fill:#dfdfdf; stroke:none;" d="M535 951L536 952L535 951M424 960L425 961L424 960z"/>
<path style="fill:#818181; stroke:none;" d="M523 963L524 964L523 963z"/>
<path style="fill:#dfdfdf; stroke:none;" d="M518 966L519 967L518 966z"/>
<path style="fill:#b4b4b4; stroke:none;" d="M438 970L439 971L438 970M512 970L513 971L512 970z"/>
<path style="fill:#dfdfdf; stroke:none;" d="M441 971L442 972L441 971z"/>
<path style="fill:#818181; stroke:none;" d="M508 972L509 973L508 972z"/>
<path style="fill:#dfdfdf; stroke:none;" d="M445 973L446 974L445 973z"/>
<path style="fill:#818181; stroke:none;" d="M452 976L453 977L452 976z"/>
<path style="fill:#dfdfdf; stroke:none;" d="M494 976L495 977L494 976M496 976L497 977L496 976z"/>
<path style="fill:#818181; stroke:none;" d="M460 978L461 979L460 978z"/>
<path style="fill:#dfdfdf; stroke:none;" d="M464 978L465 979L464 978M488 978L489 979L488 978z"/>
<path style="fill:#b4b4b4; stroke:none;" d="M471 979L472 980L471 979M479 979L480 980L479 979z"/>
</svg>
